<svg class="svg-icon" style="width: 1em; height: 1em;vertical-align: middle;fill: none;overflow: hidden;" viewBox="0 0 1024 1024" version="1.1" xmlns="http://www.w3.org/2000/svg"><path d="M987.428571 219.428571a36.571429 36.571429 0 0 0 36.571429-36.571428V109.714286a109.714286 109.714286 0 0 0-109.714286-109.714286H109.714286a109.714286 109.714286 0 0 0-109.714286 109.714286v804.571428a109.714286 109.714286 0 0 0 109.714286 109.714286h804.571428a109.714286 109.714286 0 0 0 109.714286-109.714286V402.285714a36.571429 36.571429 0 0 0-73.142857 0v329.142857H73.142857V109.714286a36.571429 36.571429 0 0 1 36.571429-36.571429h804.571428a36.571429 36.571429 0 0 1 36.571429 36.571429v73.142857a36.571429 36.571429 0 0 0 36.571428 36.571428z m-36.571428 585.142858v109.714285a36.571429 36.571429 0 0 1-36.571429 36.571429H109.714286a36.571429 36.571429 0 0 1-36.571429-36.571429v-109.714285z" fill="white" /><path d="M219.428571 475.428571v146.285715a36.571429 36.571429 0 0 0 73.142858 0v-146.285715a36.571429 36.571429 0 0 0-73.142858 0zM475.428571 256v365.714286a36.571429 36.571429 0 0 0 73.142858 0V256a36.571429 36.571429 0 0 0-73.142858 0zM731.428571 402.285714v219.428572a36.571429 36.571429 0 0 0 73.142858 0V402.285714a36.571429 36.571429 0 0 0-73.142858 0z" fill="rgb(75,210,254)" /></svg>