<svg class="svg-icon" style="width: 1em; height: 1em;vertical-align: middle;fill: rgb(247,160,145);overflow: hidden;" viewBox="0 0 1024 1024" version="1.1" xmlns="http://www.w3.org/2000/svg"><path d="M853.333333 768H170.666667c-72.533333 0-128-55.466667-128-128V213.333333c0-72.533333 55.466667-128 128-128h682.666666c72.533333 0 128 55.466667 128 128v426.666667c0 72.533333-55.466667 128-128 128zM170.666667 170.666667c-25.6 0-42.666667 17.066667-42.666667 42.666666v426.666667c0 25.6 17.066667 42.666667 42.666667 42.666667h682.666666c25.6 0 42.666667-17.066667 42.666667-42.666667V213.333333c0-25.6-17.066667-42.666667-42.666667-42.666666H170.666667zM682.666667 938.666667H341.333333c-25.6 0-42.666667-17.066667-42.666666-42.666667s17.066667-42.666667 42.666666-42.666667h341.333334c25.6 0 42.666667 17.066667 42.666666 42.666667s-17.066667 42.666667-42.666666 42.666667z"  /><path d="M512 938.666667c-25.6 0-42.666667-17.066667-42.666667-42.666667v-170.666667c0-25.6 17.066667-42.666667 42.666667-42.666666s42.666667 17.066667 42.666667 42.666666v170.666667c0 25.6-17.066667 42.666667-42.666667 42.666667z"  /></svg>