<?xml version="1.0" encoding="UTF-8" standalone="no"?>
<!-- Created with Inkscape (http://www.inkscape.org/) -->

<svg
   xmlns:dc="http://purl.org/dc/elements/1.1/"
   xmlns:cc="http://creativecommons.org/ns#"
   xmlns:rdf="http://www.w3.org/1999/02/22-rdf-syntax-ns#"
   xmlns:svg="http://www.w3.org/2000/svg"
   xmlns="http://www.w3.org/2000/svg"
   xmlns:sodipodi="http://sodipodi.sourceforge.net/DTD/sodipodi-0.dtd"
   xmlns:inkscape="http://www.inkscape.org/namespaces/inkscape"
   width="462.91055mm"
   height="495.19513mm"
   viewBox="0 0 1640.2342 1754.6284"
   id="svg2"
   version="1.1"
   inkscape:version="0.91 r13725"
   sodipodi:docname="Paw Print.svg">
  <defs
     id="defs4" />
  <sodipodi:namedview
     id="base"
     pagecolor="#ffffff"
     bordercolor="#666666"
     borderopacity="1.0"
     inkscape:pageopacity="0.0"
     inkscape:pageshadow="2"
     inkscape:zoom="0.080064216"
     inkscape:cx="-550.75433"
     inkscape:cy="886.8712"
     inkscape:document-units="px"
     inkscape:current-layer="layer1"
     showgrid="false"
     fit-margin-top="0"
     fit-margin-left="0"
     fit-margin-right="0"
     fit-margin-bottom="0"
     inkscape:window-width="1215"
     inkscape:window-height="776"
     inkscape:window-x="65"
     inkscape:window-y="24"
     inkscape:window-maximized="1" />
  <metadata
     id="metadata7">
    <rdf:RDF>
      <cc:Work
         rdf:about="">
        <dc:format>image/svg+xml</dc:format>
        <dc:type
           rdf:resource="http://purl.org/dc/dcmitype/StillImage" />
        <dc:title></dc:title>
      </cc:Work>
    </rdf:RDF>
  </metadata>
  <g
     inkscape:label="Layer 1"
     inkscape:groupmode="layer"
     id="layer1"
     transform="translate(1203.2496,335.39501)">
    <g
       id="g4276">
      <path
         sodipodi:nodetypes="scssccssccccccs"
         inkscape:connector-curvature="0"
         id="path4216"
         d="m 176.76505,1129.9176 c -2e-5,40.1864 -11.60051,96.0256 -33.5255,132.4465 -21.925,36.4208 -44.690866,71.3325 -89.9805,92.8232 -90.833956,43.1021 -275.62685,64.0461 -392.4352,64.0461 -116.80836,0 -319.5717,-7.3692 -402.16768,-64.2013 -41.29799,-28.416 -69.93787,-49.2607 -81.03406,-98.3151 -19.73337,-37.6533 -28.11107,-79.3938 -28.11109,-119.5802 -2e-5,-40.1864 12.29559,-77.7209 43.72334,-105.3409 33.34075,-29.3012 95.05401,-37.61172 127.328,-80.46619 50.6323,-40.97209 36.77002,-95.6299 59.89386,-180.44098 41.17186,-77.59187 131.49801,-149.16341 263.02809,-124.31102 125.68092,-17.84893 197.95155,17.47608 254.95403,68.97474 55.197673,58.71786 39.458664,140.51629 67.812765,190.03665 45.416983,38.81306 85.295505,77.32951 153.990855,91.53873 47.66862,32.64507 56.5231,92.60347 56.52309,132.78977 z"
         style="opacity:1;fill:rgb(171,182,196);fill-opacity:1;stroke:none;stroke-width:1.89999998;stroke-miterlimit:4;stroke-dasharray:none;stroke-opacity:1" />
      <path
         sodipodi:nodetypes="ccccccccsscccccccccc"
         id="path4216-3"
         d="m -471.20242,16.389213 c 4.29622,40.11463 13.20207,59.471146 26.21398,87.554247 12.39306,24.61705 26.79759,40.75188 27.5363,102.95656 -5.18338,54.24756 -21.71228,82.48266 -53.5869,104.40527 -30.82654,18.51638 -66.5181,31.50633 -129.94013,36.66035 -28.6652,-1.31525 -64.08335,-16.59055 -91.95027,-35.2169 -28.65298,-17.31626 -50.54077,-39.03163 -71.27254,-69.21006 -30.55243,-62.80439 -30.03262,-87.73773 -26.44343,-157.342829 5.20637,-28.356861 10.1344,-47.979603 18.58845,-72.450938 4.09551,-11.8549833 9.83502,-23.4113007 16.40567,-38.733998 6.57066,-15.322697 17.24818,-32.434302 30.41333,-52.851833 17.07651,-21.02995 24.44482,-30.249972 44.83649,-50.381532 -4.80022,-62.37642 29.00236,-132.95142 36.93657,-153.83245 17.80626,-30.91018 23.99256,-47.13903 35.30731,-53.34011 6.07456,10.07675 19.376,23.87587 17.40309,44.20724 2.6779,11.80489 -14.56937,38.66853 -15.33274,55.10834 0.0261,20.15402 4.18429,43.45449 8.44506,66.89222 48.09755,-3.67627 78.07353,-12.64962 114.27417,15.97285 25.02088,32.24207 28.82492,68.78656 25.63215,99.150666 0.47547,30.626124 -17.57464,47.9973907 -13.46656,70.452907 z"
         style="opacity:1;fill:rgb(171,182,196);fill-opacity:1;stroke:none;stroke-width:1.89999998;stroke-miterlimit:4;stroke-dasharray:none;stroke-opacity:1"
         inkscape:connector-curvature="0" />
      <path
         sodipodi:nodetypes="ccccccccsscccccccccc"
         id="path4216-3-6"
         d="m -292.66063,16.389209 c -4.29623,40.11463 -13.20203,59.47115 -26.21393,87.554251 -12.3931,24.61705 -26.7976,40.75188 -27.5363,102.95656 5.1833,54.24756 21.7122,82.48266 53.58685,104.40527 30.82654,18.51638 66.5181,31.50633 129.94013,36.66035 28.6652,-1.31525 64.083351,-16.59055 91.950261,-35.2169 28.65298,-17.31626 50.5408,-39.03163 71.27250049,-69.21006 C 30.891381,180.73429 30.371581,155.80095 26.782381,86.195849 c -5.2064,-28.35686 -10.1344,-47.9796 -18.5884995,-72.45094 -4.0955,-11.85498 -9.835,-23.4113 -16.4056,-38.734 -6.5707005,-15.32269 -17.2482305,-32.4343 -30.4133805,-52.851834 -17.07651,-21.029955 -24.44482,-30.249975 -44.83648,-50.381535 4.80022,-62.37642 -29.002361,-132.95142 -36.936571,-153.83244 -17.80626,-30.91018 -23.99256,-47.13903 -35.30731,-53.34011 -6.07456,10.07675 -19.376,23.87587 -17.40309,44.20724 -2.6779,11.80489 14.56937,38.66852 15.33274,55.10833 -0.0261,20.15402 -4.18429,43.45449 -8.44506,66.89222 -48.09755,-3.67627 -78.07353,-12.64962 -114.27417,15.97285 -25.02092,32.24207 -28.82492,68.78656 -25.63212,99.150679 -0.4755,30.62612 17.57461,47.99739 13.46653,70.4529 z"
         style="opacity:1;fill:rgb(171,182,196);fill-opacity:1;stroke:none;stroke-width:1.89999998;stroke-miterlimit:4;stroke-dasharray:none;stroke-opacity:1"
         inkscape:connector-curvature="0" />
      <path
         sodipodi:nodetypes="ccccccccsscccccccccc"
         id="path4216-3-4"
         d="m -919.15723,476.97381 c 21.16989,34.34351 37.55027,47.96967 61.39759,67.69973 21.7947,16.86943 41.74769,25.21817 69.23065,81.02726 18.70912,51.18237 15.96717,83.78463 -3.3426,117.30664 -19.83252,29.99672 -46.43721,57.10422 -101.44128,89.09593 -26.43174,11.1708 -64.97486,12.65658 -98.14911,7.86336 -33.31872,-3.27224 -62.42962,-13.4303 -94.14602,-31.72295 -54.6426,-43.49755 -64.9223,-66.21909 -91.6905,-130.57138 -7.5268,-27.83099 -11.5396,-47.66113 -14.4611,-73.38628 -1.4153,-12.46238 -1.2184,-25.36398 -1.8953,-42.02231 -0.6769,-16.65836 1.5807,-36.7013 4.6577,-60.79964 6.3422,-26.33709 9.0159,-37.83282 18.7366,-64.78843 -31.2217,-54.21314 -31.1463,-132.46556 -32.989,-154.72704 2.7412,-35.56666 1.3267,-52.87694 8.863,-63.34998 9.8252,6.47355 27.7759,13.19031 34.7606,32.38592 7.5054,9.49716 3.524,41.17163 9.9224,56.33443 8.712,18.17381 22.5088,37.40532 36.4572,56.71648 41.8138,-24.05196 64.9929,-45.07128 109.9961,-34.85119 36.47595,18.30566 55.66267,49.64 65.87178,78.41407 13.63193,27.4291 4.83398,50.88467 18.22129,69.37538 z"
         style="opacity:1;fill:rgb(171,182,196);fill-opacity:1;stroke:none;stroke-width:1.89999998;stroke-miterlimit:4;stroke-dasharray:none;stroke-opacity:1"
         inkscape:connector-curvature="0" />
      <path
         sodipodi:nodetypes="ccccccccsscccccccccc"
         id="path4216-3-6-6"
         d="m 150.16919,510.31022 c -16.56415,36.78682 -31.05044,52.41165 -52.154198,75.05235 -19.43725,19.53922 -38.14693,30.39142 -58.20317,89.27873 -11.95242,53.16769 -5.02893,85.14411 18.44267,115.89599 23.53532,27.18861 53.413668,50.63878 112.084138,75.26995 27.65162,7.66885 66.0645,4.17165 98.34359,-4.85974 32.61854,-7.54175 60.17642,-21.36916 89.26874,-43.59928 48.57682,-50.18106 55.84052,-74.03856 74.08622,-141.30554 3.8749,-28.56926 5.29687,-48.75131 4.87634,-74.6384 -0.20369,-12.54082 -2.06271,-25.30932 -3.53971,-41.91584 -1.4771,-16.60653 -6.30059,-36.19099 -12.45962,-59.69127 -9.68573,-25.29927 -13.81962,-36.35421 -26.93545,-61.83115 23.9696,-57.78683 13.80334,-135.37609 12.75981,-157.68931 -7.30513,-34.91614 -8.13497,-52.26426 -16.95873,-61.67799 -8.9083,7.68656 -25.84294,16.66219 -30.29381,36.59826 -6.21792,10.38575 1.815,41.28228 -2.57457,57.14361 -6.29547,19.14555 -17.49692,39.99573 -28.83856,60.94444 -44.5664,-18.45874 -70.26257,-36.31335 -113.57191,-20.37493 -33.81072,22.85679 -48.79627,56.40382 -55.20936,86.25421 -9.98083,28.95805 1.76851,51.08316 -9.12242,71.14591 z"
         style="opacity:1;fill:rgb(171,182,196);fill-opacity:1;stroke:none;stroke-width:1.89999998;stroke-miterlimit:4;stroke-dasharray:none;stroke-opacity:1"
         inkscape:connector-curvature="0" />
    </g>
  </g>
</svg>
