<svg class="svg-icon" style="width: 1em; height: 1em;vertical-align: middle;fill: none;overflow: hidden;" viewBox="0 0 1024 1024" version="1.1" xmlns="http://www.w3.org/2000/svg"><path d="M236.373333 533.333333c0 153.173333 124.16 277.333333 277.333334 277.333334 145.92 0 265.813333-112.64 276.48-256h-297.813334V256.853333c-143.36 10.666667-256 130.56-256 276.48z m597.333334-21.333333v21.333333c0 176.64-143.36 320-320 320s-320-143.36-320-320 143.36-320 320-320h21.333333v298.666667h298.666667z" fill="white" /><path d="M832.853333 426.666667h-212.48V214.186667c112.64 10.24 202.24 99.84 212.48 212.48z m-233.813333-256h-21.333333v298.666666h298.666666v-21.333333c0-153.173333-124.16-277.333333-277.333333-277.333333z" fill="rgb(75,210,254)" /></svg>