<svg class="svg-icon" style="width: 1em; height: 1em;vertical-align: middle;fill: rgb(84,200,154);overflow: hidden;" viewBox="0 0 1024 1024" version="1.1" xmlns="http://www.w3.org/2000/svg"><path d="M362.666667 448m-64 0a64 64 0 1 0 128 0 64 64 0 1 0-128 0Z" fill="" /><path d="M661.333333 448m-64 0a64 64 0 1 0 128 0 64 64 0 1 0-128 0Z" fill="" /><path d="M512 85.333333C276.736 85.333333 85.333333 276.736 85.333333 512s191.402667 426.666667 426.666667 426.666667 426.666667-191.402667 426.666667-426.666667S747.264 85.333333 512 85.333333z m0 768c-188.202667 0-341.333333-153.130667-341.333333-341.333333s153.130667-341.333333 341.333333-341.333333 341.333333 153.130667 341.333333 341.333333-153.130667 341.333333-341.333333 341.333333z" fill="" /><path d="M512 682.666667a169.386667 169.386667 0 0 1-136.576-68.309334L307.2 665.642667A254.037333 254.037333 0 0 0 512 768a254.165333 254.165333 0 0 0 204.8-102.357333L648.533333 614.4A169.386667 169.386667 0 0 1 512 682.666667z" fill="" /></svg>