<svg class="svg-icon" style="width: 1em; height: 1em;vertical-align: middle;fill: rgb(75,204,218);overflow: hidden;" viewBox="0 0 1024 1024" version="1.1" xmlns="http://www.w3.org/2000/svg"><path d="M896 798.72V640c0-84.48-69.12-153.6-153.6-153.6s-153.6 69.12-153.6 153.6v153.6c0 56.32-46.08 102.4-102.4 102.4s-102.4-46.08-102.4-102.4v-76.8c107.52-10.24 186.88-76.8 204.8-171.52l48.64-235.52c12.8-66.56 0-125.44-33.28-166.4-35.84-43.52-92.16-64-168.96-64-15.36 0-25.6 10.24-25.6 25.6v51.2c0 15.36 10.24 25.6 25.6 25.6s25.6-10.24 25.6-25.6v-25.6c46.08 5.12 81.92 17.92 102.4 43.52 30.72 35.84 28.16 87.04 23.04 122.88l-40.96 197.12c-48.64 48.64-69.12 69.12-186.88 69.12s-138.24-20.48-186.88-69.12l-40.96-194.56c-7.68-35.84-7.68-87.04 23.04-125.44 20.48-25.6 56.32-40.96 102.4-43.52v25.6c0 15.36 10.24 25.6 25.6 25.6s25.6-10.24 25.6-25.6v-51.2c0-15.36-10.24-25.6-25.6-25.6-76.8 0-133.12 20.48-168.96 64-33.28 40.96-46.08 97.28-33.28 166.4l48.64 235.52c17.92 97.28 97.28 163.84 204.8 174.08v76.8c0 84.48 69.12 153.6 153.6 153.6s153.6-69.12 153.6-153.6v-153.6c0-56.32 46.08-102.4 102.4-102.4s102.4 46.08 102.4 102.4v158.72c-30.72 10.24-51.2 38.4-51.2 71.68 0 43.52 33.28 76.8 76.8 76.8s76.8-33.28 76.8-76.8c0-35.84-20.48-64-51.2-74.24z m-698.88-215.04c35.84 20.48 79.36 30.72 161.28 30.72 81.92 0 125.44-10.24 161.28-30.72-30.72 51.2-89.6 81.92-161.28 81.92s-130.56-30.72-161.28-81.92zM870.4 896c-15.36 0-25.6-10.24-25.6-25.6s10.24-25.6 25.6-25.6 25.6 10.24 25.6 25.6-10.24 25.6-25.6 25.6z"  /></svg>